<?xml version="1.0" encoding="utf-8"?>
<!-- Generator: Adobe Illustrator 19.0.0, SVG Export Plug-In . SVG Version: 6.00 Build 0)  -->
<svg version="1.1" id="katman_1" xmlns="http://www.w3.org/2000/svg" xmlns:xlink="http://www.w3.org/1999/xlink" x="0px" y="0px"
	 viewBox="0 0 595.3 280.4" style="enable-background:new 0 0 595.3 280.4;" xml:space="preserve">
<style type="text/css">
	<!-- .st0{fill:#312783;} -->
	.st0{fill:#ffffff;}
	.st1{fill:#E30613;}
</style>
<g id="XMLID_3_">
	<g id="XMLID_36446_">
		<path id="XMLID_76_" class="st0" d="M166.1,81c0,33.4-26,60.6-58,60.6c-32.2,0-58.2-27.2-58.2-60.6c0-33.6,26-60.8,58.2-60.8
			C140.1,20.2,166.1,47.4,166.1,81z M159.4,81c0-29.1-23.5-52.9-51.4-52.9c-28,0-51,23.9-51,52.9c0,28.9,23,52.9,51,52.9
			C135.9,134,159.4,109.9,159.4,81z"/>
		<path id="XMLID_36460_" class="st0" d="M177.5,100.5c-0.3-2.8-0.2-4.5,0.2-45.8h6.6v46.9c1.7,18.5,18.6,33.1,34.5,33.1
			c15.7,0,30.7-11.8,34.3-29.8V54.7h6.6v87.1h-6.6v-18.6c0,0-4.9,5.9-9.4,9.6c-7.1,5.7-15.8,9.1-24.9,9.1c-14.3,0-27.3-7.8-35-21.1
			C180.3,114.6,178.1,107.7,177.5,100.5z"/>
		<path id="XMLID_36457_" class="st0" d="M270.9,24.3c0-2.3,1.9-4,4-4c2.3,0,4,1.7,4,4c0,2.1-1.7,3.8-4,3.8
			C272.8,28.1,270.9,26.3,270.9,24.3z M277.9,54.9v87.4h-7V54.9H277.9z"/>
		<path id="XMLID_36455_" class="st0" d="M356.4,60.7l-3.3,6.6c-5.9-3.8-12.7-5.7-19.9-5.7c-20.2,0-36.6,16.4-36.6,36.6
			c0,20,16.4,36.6,36.6,36.6c7.1,0,14.1-2.1,20-6.1l3.1,6.8c-7,4.4-15,6.6-23.2,6.6c-24.2,0-43.9-19.7-43.9-43.9
			c0-24.4,19.7-44.1,43.9-44.1C341.4,54,349.5,56.3,356.4,60.7z"/>
		<path id="XMLID_36453_" class="st0" d="M394.4,91.7l40.1,50.3h-7.3l-36.9-45.1l-14.6,17.8V142h-7.1V11.5h7.1v91.6l40.6-48.2
			l9.6-0.2L394.4,91.7z"/>
		<path id="XMLID_36451_" class="st0" d="M454.8,10.8v131h-7.5v-131H454.8z"/>
		<path id="XMLID_36449_" class="st0" d="M511.1,131.7l-23.3,54.3h-7.8l21.9-51L467,54.9h7.8l30.7,69.8l30.8-69.8h7.7L511.1,131.7z"
			/>
		<path id="XMLID_75_" class="st0" d="M139.5,180.1c1.1,1.9,0.3,3.8-0.3,5.6c-1.2,3.6-2.4,7.2-3.6,10.8c-1.2,3.5-2.3,6.9-3.5,10.4
			c-1.4,4.2-2.8,8.5-4.2,12.7c-1.3,4-2.7,8-4,12c-1.2,3.6-2.4,7.2-3.6,10.8c-1.2,3.5-2.3,6.9-3.5,10.4c-1.4,4.1-2.8,8.3-4.1,12.5
			c-0.3,1-0.7,2.1-1.1,3.1c-0.6,1.6-2,2.4-4,2.4c-1.5,0-2.8-1-3.3-2.5c-1.3-3.8-2.5-7.5-3.8-11.3c-1.2-3.6-2.4-7.2-3.6-10.9
			c-1.3-4-2.6-7.9-4-11.9c-1.4-4.1-2.8-8.3-4.2-12.4c-1.3-4-2.7-8.1-4-12.1c-1.4-4.1-2.7-8.2-4.1-12.3c-1.2-3.5-2.3-7-3.5-10.5
			c-0.3-0.8-0.5-1.6-0.8-2.3c-0.6-1.5-0.7-3,0.2-4.4c0.3-0.3,0.7-0.7,1-1c2.7-1.3,4.2-0.5,5.9,1.2c8,8,16,16,24,24
			c0.6,0.6,0.6,0.6,1.3,0c7.6-7.6,15.2-15.2,22.8-22.8c0.7-0.7,1.4-1.4,2.1-2c0.4-0.3,0.9-0.6,1.4-0.8c1.2-0.5,2.4-0.1,3.5,0.5
			C138.8,179.4,139.2,179.7,139.5,180.1z"/>
		<path id="XMLID_74_" class="st1" d="M162.6,161.2c-5.2,5.9-11.8,8.9-18.6,8.9c-17.8,0.2-22.8-20.9-36.4-21.1
			c-5.2,0-10.1,2.4-14.1,7.3l-4.2-5.4c5.2-6.1,11.7-9.4,18.3-9.4c16.7,0,21.8,21.1,36.4,20.9c5.4,0,10.5-2.6,14.3-7.1L162.6,161.2z"
			/>
	</g>
</g>
</svg>
